<svg xmlns="http://www.w3.org/2000/svg" width="36.383" height="36.252" viewBox="0 0 36.383 36.252">
  <g id="J" transform="translate(0 0)">
    <path id="Trazado_135" data-name="Trazado 135" d="M3.423,0H8.169a3.423,3.423,0,0,1,0,6.846H3.423A3.423,3.423,0,0,1,3.423,0Z" transform="translate(24.155 14.704)" fill="#1D1D1F"/>
    <path id="Trazado_12" data-name="Trazado 12" d="M76.435,0H57.543a4.183,4.183,0,1,0,0,8.365H76.435a4.183,4.183,0,1,0,0-8.365Z" transform="translate(-44.235 0.005)" fill="#1D1D1F"/>
    <path id="Trazado_13" data-name="Trazado 13" d="M32.2,163.08H4.181a4.181,4.181,0,0,0,0,8.362H32.2a4.181,4.181,0,1,0,0-8.362Z" transform="translate(0 -135.191)" fill="#1D1D1F"/>
  </g>
</svg>
